<svg xmlns="http://www.w3.org/2000/svg" width="18" height="15" fill="none" viewBox="0 0 18 15">
  <path fill="#fff" d="M5.46.28c2.387 0 4.16.6 5.32 1.8 1.16 1.187 1.74 2.893 1.74 5.12 0 1.453-.287 2.727-.86 3.82a5.976 5.976 0 0 1-2.46 2.52c-1.08.6-2.387.9-3.92.9-.2 0-.467-.007-.8-.02a26.11 26.11 0 0 0-1.04-.02c-.347-.013-.667-.02-.96-.02-.467 0-.927.007-1.38.02-.453 0-.82.013-1.1.04v-.4c.453-.027.793-.08 1.02-.16.24-.08.4-.24.48-.48.08-.24.12-.6.12-1.08V2.4c0-.493-.04-.853-.12-1.08a.721.721 0 0 0-.48-.48C.793.747.453.693 0 .68v-.4c.28.013.647.033 1.1.06.453.013.9.013 1.34 0C2.907.327 3.433.313 4.02.3A65.85 65.85 0 0 1 5.46.28Zm-.5.36c-.613 0-1.013.113-1.2.34-.187.227-.28.687-.28 1.38v10c0 .693.093 1.153.28 1.38.2.227.607.34 1.22.34 1.453 0 2.58-.26 3.38-.78.8-.533 1.36-1.307 1.68-2.32.32-1.013.48-2.247.48-3.7 0-1.493-.18-2.727-.54-3.7-.347-.987-.927-1.72-1.74-2.2C7.44.887 6.347.64 4.96.64ZM12.433 0c.88 0 1.6.133 2.16.4a7.04 7.04 0 0 1 1.52.9c.267.2.467.227.6.08.147-.16.247-.527.3-1.1h.46a52.333 52.333 0 0 0-.06 1.8c-.013.707-.02 1.64-.02 2.8h-.46a19.644 19.644 0 0 0-.26-1.36 3.98 3.98 0 0 0-.3-.88 3.485 3.485 0 0 0-.44-.72 3.486 3.486 0 0 0-1.56-1.18 5.233 5.233 0 0 0-1.98-.38 3.29 3.29 0 0 0-1.78.5c-.52.32-.973.787-1.36 1.4-.373.613-.667 1.353-.88 2.22-.2.867-.3 1.84-.3 2.92 0 1.12.113 2.113.34 2.98.227.853.54 1.573.94 2.16.413.587.893 1.033 1.44 1.34.56.293 1.16.44 1.8.44.6 0 1.227-.12 1.88-.36.653-.24 1.167-.627 1.54-1.16a3.33 3.33 0 0 0 .6-1.26c.12-.453.227-1.087.32-1.9h.46c0 1.213.007 2.193.02 2.94.013.733.033 1.353.06 1.86h-.46c-.053-.573-.147-.933-.28-1.08-.12-.147-.327-.127-.62.06-.493.347-1.02.653-1.58.92-.547.253-1.253.38-2.12.38-1.267 0-2.38-.287-3.34-.86-.947-.573-1.687-1.4-2.22-2.48-.52-1.08-.78-2.38-.78-3.9 0-1.493.273-2.8.82-3.92.547-1.12 1.293-1.993 2.24-2.62.96-.627 2.06-.94 3.3-.94Z"/>
</svg>
